<?xml version="1.0" encoding="UTF-8"?>
<svg id="Layer_1" xmlns="http://www.w3.org/2000/svg" version="1.1" viewBox="0 0 500 120">
  <!-- Generator: Adobe Illustrator 29.6.1, SVG Export Plug-In . SVG Version: 2.1.1 Build 9)  -->
  <defs>
    <style>
      .st0 {
        fill: #1285be;
      }

      .st1 {
        fill: #8cc441;
      }

      .st2 {
        fill: #02a6b0;
      }

      .st3 {
        fill: #12aa4b;
      }

      .st4 {
        fill: #0d8ba0;
      }

      .st5 {
        fill: #0b73b8;
      }

      .st6 {
        fill: #8dc440;
      }

      .st7 {
        fill: #02adbf;
      }

      .st8 {
        fill: #52b248;
      }

      .st9 {
        fill: #2ba8e0;
      }
    </style>
  </defs>
  <g>
    <path class="st9" d="M108.39,70.01h-24.96s-.01.02-.01.02h24.95s.02-.02.03-.02"/>
    <path class="st9" d="M111.15,70.03s0-.02,0-.02h-2.76s-.02.02-.03.02h2.78Z"/>
    <path class="st6" d="M148.62,5.71c4.77,10.11,14.1,16.98,24.83,16.98,1.57,0,3.11-.15,4.61-.44-7.48-8.04-17.8-14.1-29.45-16.54"/>
    <path class="st7" d="M41.15,107.99c5.43,1.77,11.34,2.75,17.64,2.75,11.88,0,22.91-3.65,31.86-10.1-3.7-7.08-8.92-13.24-15.24-18.04-7.37,12.6-19.68,21.94-34.27,25.39"/>
    <path class="st7" d="M28.67,87.62c5.41,0,10.46-1.75,14.75-4.77-3.86-2.7-6.93-6.39-9.1-10.64-8.27,1.28-15.91,4.44-22.5,9.02,4.7,4.02,10.53,6.4,16.85,6.4"/>
    <path class="st9" d="M93.96,92.12c-5.1-6.34-8.76-13.83-10.57-22.01-.83,1.79-2.78,5.77-6.32,9.47-.77.8-1.62,1.6-2.55,2.35.3.22.61.44.91.67,6.31,4.8,11.53,10.96,15.24,18.04.44-.32.87-.64,1.3-.97,1.71-1.32,3.34-2.74,4.89-4.26-1-1.06-1.97-2.16-2.89-3.3"/>
    <path class="st9" d="M39.34,34.4c-3.45.69-7.02,1.06-10.67,1.06-6.49,0-12.71-1.14-18.47-3.24-3.93,7.68-6.01,16.19-6.01,24.63,0,7.29,1.5,14.44,4.29,21.02.62,1.46,1.3,2.89,2.04,4.29.43-.32.86-.62,1.3-.92,6.59-4.58,14.23-7.74,22.5-9.02-2.39-4.7-3.67-10.07-3.67-15.51,0-8.09,3.02-16.44,8.69-22.31"/>
    <path class="st4" d="M43.42,82.85c-4.29,3.02-9.34,4.77-14.75,4.77-6.32,0-12.15-2.38-16.85-6.4-.44.3-.87.61-1.3.92,6.29,11.84,16.95,21.38,30.63,25.84,14.59-3.45,26.9-12.79,34.27-25.39-.3-.23-.6-.45-.91-.67-3.83,3.12-9.05,5.57-16,5.57-5.84,0-10.92-1.74-15.09-4.66"/>
    <path class="st8" d="M136.54,27.76c11.2,0,18.76,6.16,22.82,13.44h29.68c-1.98-6.9-5.8-13.4-10.98-18.96-1.5.29-3.04.44-4.61.44-10.74,0-20.07-6.87-24.83-16.98-3.67-.77-7.48-1.18-11.38-1.18-5.37,0-10.56.7-15.47,2.01,2.52,8.09,6.91,15.36,12.63,21.32.72-.06,1.43-.09,2.14-.09"/>
    <path class="st0" d="M46.9,4.35c8.18,2.92,15.44,7.76,21.26,13.98,3.39-3.62,6.3-7.71,8.6-12.16-5.44-1.85-11.51-2.94-18.25-2.94-4.07,0-7.94.4-11.61,1.13"/>
    <path class="st0" d="M28.67,35.45c3.65,0,7.22-.37,10.67-1.06,1.84-1.9,3.96-3.54,6.34-4.83-4.73-4.1-10.62-6.54-17.01-6.54s-12.3,2.45-17.03,6.56c-.5.86-.98,1.74-1.44,2.63,5.76,2.09,11.99,3.24,18.47,3.24"/>
    <path class="st5" d="M68.16,18.32c-5.82-6.21-13.08-11.05-21.26-13.98-16.02,3.21-28.11,12.96-35.27,25.24,4.73-4.11,10.63-6.56,17.03-6.56s12.28,2.44,17.01,6.54c3.63-1.96,7.86-3.11,12.69-3.11h.17c10.32.06,17.26,5.54,21.4,11.48-2.5-7.39-6.55-14.05-11.77-19.62"/>
    <path class="st6" d="M83.36,70.03s.01.05.02.08c.01-.03.03-.06.04-.08h-.06Z"/>
    <path class="st2" d="M108.37,70.03h-24.95s-.03.05-.04.08c1.81,8.18,5.47,15.68,10.57,22.01.91,1.14,1.88,2.24,2.89,3.3,6.8-6.71,11.83-15.36,14.3-25.39h-2.78Z"/>
    <path class="st8" d="M143.37,53.95v16.73l18.37.12c-2.8,10.08-11.62,18.32-24.78,18.32-6.17,0-12.59-2.09-17.7-6.58,1.53,4,2.38,8.34,2.38,12.88,0,4.96-1,9.69-2.82,13.99,5.67,1.91,11.81,2.95,18.28,2.95,22.36,0,43.43-12.67,51.66-34.68-9.83-13.36-27.53-23.7-45.38-23.74"/>
    <polyline class="st8" points="111.15 70.03 111.15 70.03 111.16 70.03 111.15 70.03"/>
    <path class="st3" d="M119.26,82.54c-3.46-3.03-6.32-7.17-8.11-12.51h0c-2.47,10.03-7.5,18.68-14.3,25.39,5.95,6.26,13.43,11.11,21.98,13.99,1.82-4.3,2.82-9.03,2.82-13.99,0-4.54-.85-8.88-2.38-12.88"/>
    <path class="st2" d="M110.4,41.2c-1.87-6.82-6.02-14.67-12.48-21.46-6.14,5.83-10.83,13.12-13.53,21.46h26.01,0Z"/>
    <path class="st1" d="M121.77,6.54c-9.14,2.43-17.31,6.99-23.85,13.21,6.47,6.79,10.61,14.64,12.48,21.46h2.46c4.97-8.33,13.41-12.69,21.54-13.35-5.73-5.97-10.11-13.23-12.63-21.32"/>
    <path class="st9" d="M81.92,41.2h2.47c2.7-8.34,7.39-15.63,13.53-21.46-5.42-5.69-12.47-10.62-21.16-13.58-2.3,4.45-5.2,8.54-8.6,12.16,5.22,5.57,9.27,12.23,11.77,19.62.75,1.08,1.41,2.18,1.99,3.26"/>
    <path class="st6" d="M188.8,50.71v-.08h-45.42v3.32c13.28.02,26.47,5.76,36.41,14.19,4.28,4,8.97,9.54,8.97,9.54l15.54-14.52-15.5-12.46h0Z"/>
    <polygon class="st9" points="211.7 53.92 207.55 50.73 197.73 50.73 201.88 53.92 212.75 63.17 197.73 77.8 207.55 77.8 222.57 63.17 211.7 53.92"/>
    <polygon class="st6" points="229.49 63.17 214.41 50.73 224.23 50.73 239.32 63.17 224.3 77.8 214.48 77.8 229.49 63.17"/>
  </g>
  <g>
    <path class="st4" d="M244.37,35.83c1.24-2.17,2.93-3.86,5.07-5.07,2.14-1.21,4.55-1.82,7.21-1.82,3.12,0,5.85.8,8.19,2.4,2.34,1.6,3.98,3.81,4.91,6.63h-6.43c-.64-1.33-1.54-2.33-2.7-3-1.16-.67-2.5-1-4.01-1-1.62,0-3.07.38-4.33,1.14-1.27.76-2.25,1.83-2.96,3.22-.71,1.39-1.06,3.01-1.06,4.87s.35,3.46,1.06,4.85c.71,1.4,1.69,2.48,2.96,3.24,1.26.76,2.71,1.14,4.33,1.14,1.52,0,2.86-.34,4.01-1.02,1.16-.68,2.06-1.68,2.7-3.02h6.43c-.93,2.85-2.56,5.07-4.89,6.65-2.33,1.58-5.07,2.38-8.21,2.38-2.66,0-5.07-.61-7.21-1.82-2.14-1.21-3.84-2.9-5.07-5.05-1.24-2.16-1.86-4.61-1.86-7.35s.62-5.2,1.86-7.37Z"/>
    <path class="st4" d="M279.34,55.63c-2.18-1.22-3.91-2.92-5.19-5.09-1.28-2.17-1.92-4.63-1.92-7.37s.64-5.16,1.92-7.33c1.28-2.17,3.01-3.87,5.19-5.09,2.18-1.22,4.58-1.84,7.19-1.84s5.04.61,7.21,1.84c2.17,1.23,3.89,2.92,5.15,5.09,1.26,2.17,1.9,4.61,1.9,7.33s-.63,5.2-1.9,7.37c-1.27,2.17-2.99,3.87-5.17,5.09-2.18,1.23-4.58,1.84-7.19,1.84s-5.01-.61-7.19-1.84ZM290.97,51.33c1.28-.76,2.28-1.84,3-3.26.72-1.41,1.08-3.05,1.08-4.91s-.36-3.5-1.08-4.89c-.72-1.4-1.72-2.47-3-3.22-1.28-.75-2.76-1.12-4.43-1.12s-3.16.37-4.45,1.12c-1.29.75-2.3,1.82-3.02,3.22-.72,1.4-1.08,3.03-1.08,4.89s.36,3.5,1.08,4.91c.72,1.41,1.72,2.5,3.02,3.26,1.29.76,2.78,1.14,4.45,1.14s3.16-.38,4.43-1.14Z"/>
    <path class="st4" d="M334.39,29.3v27.88h-5.59v-18.14l-7.47,18.14h-4.23l-7.51-18.14v18.14h-5.59v-27.88h6.35l8.87,20.73,8.87-20.73h6.31Z"/>
    <path class="st4" d="M358.22,42.12c-.71,1.31-1.81,2.36-3.32,3.16-1.5.8-3.4,1.2-5.69,1.2h-4.67v10.71h-5.59v-27.88h10.27c2.16,0,3.99.37,5.51,1.12,1.52.75,2.66,1.77,3.42,3.08.76,1.31,1.14,2.78,1.14,4.43,0,1.49-.35,2.89-1.06,4.19ZM352.41,40.91c.75-.71,1.12-1.7,1.12-2.98,0-2.72-1.52-4.07-4.55-4.07h-4.43v8.11h4.43c1.54,0,2.69-.35,3.44-1.06Z"/>
    <path class="st4" d="M367.87,52.75h9.19v4.43h-14.78v-27.88h5.59v23.45Z"/>
    <path class="st4" d="M385.24,29.3v27.88h-5.59v-27.88h5.59Z"/>
    <path class="st4" d="M406.9,51.87h-11.11l-1.84,5.31h-5.87l10.03-27.92h6.51l10.03,27.92h-5.91l-1.84-5.31ZM405.38,47.4l-4.03-11.66-4.03,11.66h8.07Z"/>
    <path class="st4" d="M441.29,57.18h-5.59l-12.66-19.14v19.14h-5.59v-27.92h5.59l12.66,19.18v-19.18h5.59v27.92Z"/>
    <path class="st4" d="M446.34,35.83c1.24-2.17,2.93-3.86,5.07-5.07,2.14-1.21,4.55-1.82,7.21-1.82,3.12,0,5.85.8,8.19,2.4,2.34,1.6,3.98,3.81,4.91,6.63h-6.43c-.64-1.33-1.54-2.33-2.7-3-1.16-.67-2.5-1-4.01-1-1.62,0-3.07.38-4.33,1.14-1.27.76-2.25,1.83-2.96,3.22-.71,1.39-1.06,3.01-1.06,4.87s.35,3.46,1.06,4.85c.71,1.4,1.69,2.48,2.96,3.24,1.26.76,2.71,1.14,4.33,1.14,1.52,0,2.86-.34,4.01-1.02,1.16-.68,2.06-1.68,2.7-3.02h6.43c-.93,2.85-2.56,5.07-4.89,6.65-2.33,1.58-5.07,2.38-8.21,2.38-2.66,0-5.07-.61-7.21-1.82-2.14-1.21-3.84-2.9-5.07-5.05-1.24-2.16-1.86-4.61-1.86-7.35s.62-5.2,1.86-7.37Z"/>
    <path class="st4" d="M481.16,33.81v6.99h9.39v4.43h-9.39v7.39h10.59v4.55h-16.18v-27.92h16.18v4.55h-10.59Z"/>
    <path class="st4" d="M262.38,73.53c-.61-1.12-1.46-1.98-2.53-2.57-1.07-.59-2.32-.88-3.75-.88-1.58,0-2.99.36-4.21,1.07-1.23.72-2.18,1.74-2.87,3.07-.69,1.33-1.03,2.86-1.03,4.6s.35,3.35,1.05,4.67c.7,1.33,1.68,2.35,2.93,3.07,1.25.72,2.71,1.07,4.37,1.07,2.04,0,3.72-.54,5.02-1.63,1.3-1.09,2.16-2.6,2.57-4.54h-9.2v-4.1h14.48v4.67c-.36,1.86-1.12,3.59-2.3,5.17-1.18,1.58-2.69,2.85-4.54,3.81-1.85.96-3.93,1.44-6.23,1.44-2.58,0-4.91-.58-6.99-1.74-2.08-1.16-3.72-2.78-4.9-4.85-1.19-2.07-1.78-4.42-1.78-7.05s.59-4.99,1.78-7.07c1.19-2.08,2.82-3.7,4.9-4.87,2.08-1.16,4.4-1.74,6.95-1.74,3.01,0,5.63.73,7.85,2.2,2.22,1.47,3.75,3.53,4.6,6.19h-6.17Z"/>
    <path class="st4" d="M286.05,92.23l-5.9-10.42h-2.53v10.42h-5.36v-26.74h10.04c2.07,0,3.83.36,5.29,1.09s2.55,1.71,3.28,2.95c.73,1.24,1.09,2.62,1.09,4.16,0,1.76-.51,3.35-1.53,4.77-1.02,1.42-2.54,2.39-4.56,2.93l6.4,10.84h-6.21ZM277.62,77.79h4.48c1.46,0,2.54-.35,3.26-1.05.71-.7,1.07-1.68,1.07-2.93s-.36-2.18-1.07-2.85c-.72-.68-1.8-1.02-3.26-1.02h-4.48v7.85Z"/>
    <path class="st4" d="M301.42,90.74c-2.09-1.17-3.75-2.8-4.98-4.89-1.23-2.08-1.84-4.44-1.84-7.07s.61-4.95,1.84-7.03c1.23-2.08,2.89-3.71,4.98-4.89,2.09-1.17,4.39-1.76,6.9-1.76s4.83.59,6.92,1.76c2.08,1.18,3.73,2.8,4.94,4.89,1.21,2.08,1.82,4.43,1.82,7.03s-.61,4.99-1.82,7.07c-1.21,2.08-2.87,3.71-4.96,4.89-2.09,1.18-4.39,1.76-6.9,1.76s-4.8-.59-6.9-1.76ZM312.57,86.62c1.23-.73,2.18-1.77,2.87-3.12.69-1.35,1.03-2.92,1.03-4.71s-.34-3.35-1.03-4.69c-.69-1.34-1.65-2.37-2.87-3.08-1.23-.71-2.64-1.07-4.25-1.07s-3.03.36-4.27,1.07c-1.24.72-2.2,1.74-2.89,3.08-.69,1.34-1.03,2.91-1.03,4.69s.34,3.36,1.03,4.71c.69,1.35,1.65,2.39,2.89,3.12,1.24.73,2.66,1.09,4.27,1.09s3.03-.36,4.25-1.09Z"/>
    <path class="st4" d="M330.34,65.49v16.55c0,1.81.47,3.2,1.42,4.16.94.96,2.27,1.44,3.98,1.44s3.08-.48,4.02-1.44c.94-.96,1.42-2.34,1.42-4.16v-16.55h5.4v16.51c0,2.27-.49,4.2-1.48,5.77-.98,1.57-2.3,2.75-3.95,3.54-1.65.79-3.48,1.19-5.5,1.19s-3.8-.4-5.42-1.19c-1.62-.79-2.91-1.97-3.85-3.54-.95-1.57-1.42-3.49-1.42-5.77v-16.51h5.36Z"/>
    <path class="st4" d="M369.33,77.79c-.68,1.25-1.74,2.26-3.18,3.03-1.44.77-3.26,1.15-5.46,1.15h-4.48v10.27h-5.36v-26.74h9.85c2.07,0,3.83.36,5.29,1.07,1.46.72,2.55,1.7,3.28,2.95.73,1.25,1.09,2.67,1.09,4.25,0,1.43-.34,2.77-1.02,4.02ZM363.75,76.62c.71-.68,1.07-1.63,1.07-2.85,0-2.61-1.46-3.91-4.37-3.91h-4.25v7.78h4.25c1.48,0,2.58-.34,3.3-1.02Z"/>
  </g>
</svg>